<svg viewBox="0 0 91 91" xmlns="http://www.w3.org/2000/svg" fill-rule="evenodd" clip-rule="evenodd" stroke-linejoin="round" stroke-miterlimit="1.414"><path d="M78.8 77.384C76.844 65.047 66.568 55.72 54.848 52.27c5.036-5.58 7.716-14.677 7.726-20.845.015-9.456-7.786-19.278-17.73-19.278-9.942 0-17.743 9.822-17.728 19.278.01 6.195 2.712 15.345 7.79 20.917C23.29 55.85 13.143 65.132 11.2 77.384c-.804 5.074 5.118 8.442 8.95 10.167 7.518 3.384 16.105 4.536 24.285 4.596 8.28.06 16.935-1.01 24.616-4.248 4.027-1.698 10.6-5.146 9.75-10.514z" fill="#D3F0F2" fill-rule="nonzero"/></svg>